<?xml version="1.0" encoding="utf-8"?>
<!-- Generator: Adobe Illustrator 22.0.1, SVG Export Plug-In . SVG Version: 6.00 Build 0)  -->
<svg version="1.1" id="Capa_1" xmlns="http://www.w3.org/2000/svg" xmlns:xlink="http://www.w3.org/1999/xlink" x="0px" y="0px"
	 viewBox="0 0 103.5 13.9" style="enable-background:new 0 0 103.5 13.9;" xml:space="preserve">
<style type="text/css">
	.st0{fill:#FFFFFF;}
</style>
<path class="st0" d="M12.8,8.6c0,1.9-2.8,3.4-6.3,3.4C3,12,0.2,10.5,0.2,8.6c0-1.4,1.5-2.5,3.6-3.1c0,0.5,0.1,1,0.4,1.5l2,3.4
	c0.2,0.3,0.3,0.5,0.3,0.8l0.1-0.1C7,10.2,7,9.2,6.5,8.3L4.9,5.6l0,0c-0.5-0.8-0.5-1.9,0-2.7L5,2.7C5.1,3,5.2,3.3,5.3,3.6l0.9,1.6
	l1.4,2.5C7.8,7.9,7.9,8.2,8,8.5l0.1-0.1c0.5-0.8,0.5-1.9,0-2.7L6.5,2.9C6,2,6,1,6.5,0.1L6.6,0c0.1,0.3,0.2,0.6,0.3,0.8l2,3.4
	c0.2,0.4,0.3,0.8,0.4,1.2C11.3,6,12.8,7.2,12.8,8.6 M52.3,11.8c2,0,3-0.9,3-2.3c0-1.1-0.6-1.8-2.1-2.5l-0.6-0.3
	c-0.8-0.4-1.3-0.7-1.3-1.3c0-0.6,0.5-1,1.5-1c0.5,0,1.3,0.1,1.9,0.3C54.8,4.4,54.9,4,55,3.5c-0.7-0.2-1.4-0.3-2.2-0.3
	c-1.9,0-2.9,0.9-2.9,2.2c0,1.3,0.8,1.9,1.9,2.4L52.4,8C53.5,8.5,54,8.8,54,9.5c0,0.7-0.6,1.1-1.7,1.1c-0.7,0-1.5-0.2-2.2-0.5
	c-0.1,0.4-0.2,0.7-0.2,1.2C50.5,11.6,51.3,11.8,52.3,11.8 M59.5,5.3c-2.2,0-3.3,1.2-3.3,3.3c0,2,1,3.1,2.6,3.1
	c0.8,0,1.3-0.3,1.7-0.9l0.1,0.7h1.2V5.7C61,5.4,60.3,5.3,59.5,5.3 M59.1,10.7c-1.2,0-1.6-0.9-1.6-2.1c0-1.3,0.6-2.2,2-2.2
	c0.4,0,0.7,0,0.9,0.1v3.7C60.1,10.5,59.6,10.7,59.1,10.7 M65.5,5.3c-0.6,0-1.5,0.1-2.4,0.3v5.9h1.3v-5c0.4-0.1,0.7-0.1,1-0.1
	c1.3,0,1.6,0.4,1.6,1.4v3.7h1.3v-4C68.4,6.2,67.7,5.3,65.5,5.3 M71,9.5V6.6h1.9C73,6.3,73,5.9,73,5.5H71V3.3c-0.4,0-0.9,0.1-1.3,0.2
	v6.2c0,1.4,0.8,2,2.1,2c0.4,0,0.7,0,1.1-0.2c0.1-0.3,0.1-0.7,0.2-1.1c-0.3,0.1-0.6,0.2-1,0.2C71.3,10.6,71,10.3,71,9.5 M76.7,5.3
	c-2.2,0-3.3,1.2-3.3,3.3c0,2,1,3.1,2.6,3.1c0.8,0,1.3-0.3,1.7-0.9l0.1,0.7h1.2V5.7C78.3,5.4,77.6,5.3,76.7,5.3 M76.4,10.7
	c-1.2,0-1.6-0.9-1.6-2.1c0-1.3,0.6-2.2,2-2.2c0.4,0,0.7,0,0.9,0.1v3.7C77.3,10.5,76.9,10.7,76.4,10.7 M82.7,5.3
	c-0.6,0-1.5,0.1-2.4,0.3v5.9h1.3v-5c0.4-0.1,0.7-0.1,1-0.1c1.3,0,1.6,0.4,1.6,1.4v3.7h1.3v-4C85.6,6.2,84.9,5.3,82.7,5.3 M90.9,3.5
	v2c-0.3-0.1-0.6-0.1-1-0.1c-2.2,0-3.3,1.2-3.3,3.3c0,2,1,3.1,2.6,3.1c0.9,0,1.4-0.3,1.7-0.9l0.1,0.8h1.2V3.3
	C91.8,3.3,91.3,3.3,90.9,3.5 M89.6,10.7c-1.2,0-1.6-0.9-1.6-2.1c0-1.3,0.6-2.2,1.9-2.2c0.3,0,0.7,0,1,0.1v3.6
	C90.6,10.5,90.1,10.7,89.6,10.7 M98.8,8c0-1.5-0.8-2.7-2.7-2.7c-2.1,0-2.9,1.4-2.9,3.2c0,2,1.1,3.2,3.2,3.2c0.7,0,1.3-0.1,1.9-0.4
	c0.1-0.4,0.2-0.8,0.2-1.2c-0.7,0.3-1.4,0.4-2.1,0.4c-1.2,0-1.8-0.5-1.9-1.6h4.2C98.8,8.7,98.8,8.4,98.8,8 M96.1,6.4
	C97,6.4,97.5,7,97.5,8h-2.9C94.7,7,95.2,6.4,96.1,6.4 M102.2,5.3c-0.7,0-1.7,0.1-2.2,0.3v5.9h1.3V6.5c0.3,0,0.6-0.1,1-0.1
	c0.4,0,0.7,0,1,0c0.1-0.2,0.1-0.7,0.1-1.1C103,5.3,102.6,5.3,102.2,5.3 M20.9,7.1v3.3c-0.4,0.1-0.7,0.1-1.1,0.1
	c-1.8,0-2.9-1-2.9-3.2c0-1.9,1.1-3,3-3c0.8,0,1.5,0.1,2.1,0.3c0.1-0.4,0.2-0.8,0.2-1.2c-0.6-0.2-1.4-0.3-2.3-0.3
	c-2.8,0-4.4,1.5-4.4,4.3c0,2.5,1.5,4.3,4.2,4.3c0.9,0,1.8-0.2,2.5-0.4V7.1H20.9z M25.9,5.3c-0.7,0-1.7,0.1-2.2,0.3v5.9H25V6.5
	c0.3,0,0.6-0.1,1-0.1c0.4,0,0.7,0,1,0c0.1-0.2,0.1-0.7,0.1-1.1C26.8,5.3,26.3,5.3,25.9,5.3 M31.8,5.5v4.7c-0.4,0.3-0.8,0.5-1.3,0.5
	c-1,0-1.3-0.4-1.3-1.5V5.5h-1.3v4c0,1.5,0.8,2.3,2.2,2.3c0.8,0,1.4-0.4,1.8-0.9l0.1,0.8h1.2V5.5H31.8z M36.8,5.3
	c-0.8,0-1.7,0.1-2.3,0.3v8.2h1.3v-2.3c0.3,0.1,0.6,0.1,1,0.1c2.1,0,3.2-1.2,3.2-3.3C40.1,6.5,39.1,5.3,36.8,5.3 M36.8,10.6
	c-0.3,0-0.6,0-1-0.1v-4c0.3,0,0.6-0.1,0.9-0.1c1.5,0,2,0.8,2,2.1C38.8,9.9,38.1,10.6,36.8,10.6 M43.9,11.7c1.9,0,3.1-1.2,3.1-3.3
	c0-1.8-1-3.1-3-3.1c-1.9,0-3.1,1.2-3.1,3.3C40.8,10.4,41.9,11.7,43.9,11.7 M43.9,10.6c-1.1,0-1.8-0.7-1.8-2.1c0-1.3,0.6-2.1,1.8-2.1
	c1.1,0,1.7,0.7,1.7,2.1C45.7,9.8,45.1,10.6,43.9,10.6"/>
</svg>
