<?xml version="1.0" encoding="utf-8"?>
<!-- Generator: Adobe Illustrator 19.2.1, SVG Export Plug-In . SVG Version: 6.00 Build 0)  -->
<svg version="1.1" id="Layer_1" xmlns="http://www.w3.org/2000/svg" xmlns:xlink="http://www.w3.org/1999/xlink" x="0px" y="0px"
	 viewBox="0 0 51 23" style="enable-background:new 0 0 51 23;" xml:space="preserve">
<style type="text/css">
	.st0{clip-path:url(#SVGID_2_);}
	.st1{clip-path:url(#SVGID_4_);fill:#FFFFFF;}
</style>
<g>
	<defs>
		<path id="SVGID_1_" d="M24.5,7.4c-2.9,0-5.3,2.2-5.7,5c-0.4,3.7-3.4,6.2-7.1,6.2c-3.9,0-7.1-3.2-7.1-7.1c0-3.9,3.2-7.1,7.1-7.1
			c2.6,0,4.8,1.4,6.1,3.4c0.1,0.2,0.4,0.2,0.5,0c0.7-0.9,1.6-1.6,2.7-2c0.2-0.1,0.2-0.3,0.1-0.4c-2-3-5.5-5-9.4-5
			c-6.2,0-11.2,5-11.2,11.2c0,6.2,5,11.2,11.2,11.2c5.7,0,10.5-4.1,11.2-9.8c0.1-0.8,0.8-1.4,1.6-1.4h21.9v3.1
			c0,1.3-0.3,2.5-0.8,3.2c-0.4,0.6-1,0.9-1.7,0.9c-0.8,0-1.3-0.3-1.7-0.9c-0.5-0.7-0.8-1.9-0.8-3.2v-0.7c0-0.2-0.1-0.3-0.3-0.3h-3.5
			c-0.2,0-0.3,0.1-0.3,0.3v0.7c0,1.3-0.3,2.5-0.8,3.2c-0.4,0.6-1,0.9-1.7,0.9c-0.8,0-1.3-0.3-1.7-0.9c-0.5-0.7-0.8-1.9-0.8-3.2v-0.7
			c0-0.2-0.1-0.3-0.3-0.3h-3.5c-0.2,0-0.3,0.1-0.3,0.3v0.7c0,4.9,2.7,8.2,6.6,8.2c1.9,0,3.4-0.7,4.6-2c1.1,1.3,2.7,2,4.6,2
			c3.9,0,6.6-3.3,6.6-8.2V7.7c0-0.2-0.1-0.3-0.3-0.3H24.5z"/>
	</defs>
	<use xlink:href="#SVGID_1_"  style="overflow:visible;fill-rule:evenodd;clip-rule:evenodd;fill:#FFFFFF;"/>
	<clipPath id="SVGID_2_">
		<use xlink:href="#SVGID_1_"  style="overflow:visible;"/>
	</clipPath>
	<g class="st0">
		<defs>
			<rect id="SVGID_3_" x="-131.2" y="-61.4" width="312.5" height="555.8"/>
		</defs>
		<use xlink:href="#SVGID_3_"  style="overflow:visible;fill:#FFFFFF;"/>
		<clipPath id="SVGID_4_">
			<use xlink:href="#SVGID_3_"  style="overflow:visible;"/>
		</clipPath>
		<rect x="-3.7" y="-3.9" class="st1" width="58.3" height="30.8"/>
	</g>
</g>
</svg>
